<?xml version="1.0" encoding="utf-8"?>
<!-- Generator: Adobe Illustrator 23.0.0, SVG Export Plug-In . SVG Version: 6.00 Build 0)  -->
<svg version="1.1" id="Capa_1" xmlns="http://www.w3.org/2000/svg" xmlns:xlink="http://www.w3.org/1999/xlink" x="0px" y="0px"
	 viewBox="0 0 13 13" style="enable-background:new 0 0 13 13;" xml:space="preserve">
<style type="text/css">
	.st0{fill:#FDF49F;}
</style>
<g>
	<g>
		<path class="st0" d="M6.5,0C2.9,0,0,2.9,0,6.5S2.9,13,6.5,13S13,10.1,13,6.5C13,2.9,10.1,0,6.5,0z M4.9,0.7C4.2,1.3,3.8,2,3.5,2.9
			C3,2.7,2.5,2.6,2.1,2.4C2.8,1.6,3.8,1,4.9,0.7z M1.8,2.7c0.5,0.2,1,0.4,1.6,0.6c-0.3,1-0.5,2-0.5,3v0H0.4C0.5,5,1,3.7,1.8,2.7z
			 M1.8,10.2C1,9.2,0.5,8,0.4,6.7l2.4,0c0,1,0.2,2,0.5,3C2.8,9.8,2.3,10,1.8,10.2z M2.1,10.6L2.1,10.6c0.5-0.2,0.9-0.4,1.4-0.5
			c0.3,0.8,0.8,1.6,1.4,2.2C3.8,12,2.8,11.4,2.1,10.6z M6.3,12.5c-1-0.1-1.8-1.1-2.4-2.5c0.8-0.2,1.6-0.2,2.4-0.3V12.5z M6.3,9.3
			c-0.9,0-1.7,0.1-2.5,0.3C3.5,8.7,3.3,7.7,3.3,6.7v0h3V9.3z M6.3,6.3h-3c0-1,0.2-2,0.5-2.9c0.8,0.2,1.7,0.3,2.5,0.3V6.3z M6.3,3.2
			C5.5,3.2,4.7,3.1,3.9,3c0.5-1.4,1.4-2.4,2.4-2.5V3.2z M11.2,2.7c0.8,1,1.3,2.3,1.3,3.5h-2.4c0-1-0.2-2-0.5-3
			C10.2,3.1,10.7,3,11.2,2.7z M10.9,2.4C10.5,2.6,10,2.7,9.5,2.9C9.2,2,8.7,1.3,8.1,0.7C9.2,1,10.2,1.6,10.9,2.4z M6.7,0.5
			c1,0.1,1.8,1.1,2.4,2.5C8.3,3.1,7.5,3.2,6.7,3.2V0.5z M6.7,3.6c0.9,0,1.7-0.1,2.5-0.3c0.3,0.9,0.5,1.9,0.5,2.9h-3V3.6z M6.7,6.7h3
			c0,1-0.2,2-0.5,2.9C8.4,9.5,7.6,9.4,6.7,9.4V6.7z M6.7,12.5V9.8c0.8,0,1.6,0.1,2.4,0.3C8.6,11.5,7.7,12.4,6.7,12.5z M8.1,12.3
			c0.6-0.6,1.1-1.4,1.4-2.2c0.5,0.1,1,0.3,1.4,0.5C10.2,11.4,9.2,12,8.1,12.3z M11.2,10.3c-0.5-0.2-1-0.4-1.6-0.6c0.3-1,0.5-2,0.5-3
			v0h2.4C12.5,8,12,9.3,11.2,10.3z"/>
	</g>
</g>
</svg>
