<?xml version="1.0" encoding="utf-8"?>
<!-- Generator: Adobe Illustrator 23.0.0, SVG Export Plug-In . SVG Version: 6.00 Build 0)  -->
<svg version="1.1" id="Layer_1" xmlns="http://www.w3.org/2000/svg" xmlns:xlink="http://www.w3.org/1999/xlink" x="0px" y="0px"
	 viewBox="0 0 13 13" style="enable-background:new 0 0 13 13;" xml:space="preserve">
<style type="text/css">
	.st0{fill-rule:evenodd;clip-rule:evenodd;fill:#FDF49F;}
</style>
<path class="st0" d="M13,10.1C13,10.1,13,10.1,13,10.1c0,0.1,0,0.2,0,0.2c0,0.2,0,0.4-0.1,0.6c0,0.2-0.1,0.4-0.2,0.7
	c-0.1,0.2-0.2,0.4-0.4,0.5c-0.2,0.2-0.5,0.3-0.8,0.5c-0.3,0.2-0.6,0.3-0.9,0.3C10.4,13,10.1,13,9.9,13c-0.1,0-0.1,0-0.2,0
	c-0.1,0-0.1,0-0.2,0c-0.1,0-0.1,0-0.2,0c-0.1,0-0.1,0-0.2,0c-0.1,0-0.1,0-0.2,0c-0.1,0-0.2,0-0.2-0.1c-0.1,0-0.2-0.1-0.2-0.1
	c-0.1,0-0.1,0-0.2-0.1c0,0-0.1,0-0.2-0.1c-0.1,0-0.2-0.1-0.3-0.1c-0.1,0-0.2-0.1-0.2-0.1c-0.1,0-0.1,0-0.1-0.1
	c-0.7-0.2-1.4-0.6-2.1-1.1c-0.7-0.5-1.3-1-2-1.7C2.7,9,2.2,8.3,1.7,7.6C1.3,6.9,0.9,6.2,0.6,5.5c0,0,0-0.1,0-0.1
	c0-0.1-0.1-0.1-0.1-0.2c0-0.1-0.1-0.2-0.1-0.3c0-0.1,0-0.1-0.1-0.2c0,0,0-0.1-0.1-0.1c0-0.1,0-0.1-0.1-0.2c0-0.1-0.1-0.2-0.1-0.2
	c0-0.1,0-0.1-0.1-0.2c0-0.1,0-0.1,0-0.2c0-0.1,0-0.1,0-0.2c0-0.1,0-0.2,0-0.2c0-0.1,0-0.1,0-0.2c0-0.2,0-0.5,0.1-0.8
	c0.1-0.3,0.2-0.6,0.3-0.9c0.1-0.3,0.3-0.6,0.5-0.8c0.2-0.2,0.3-0.3,0.5-0.4c0.2-0.1,0.5-0.2,0.7-0.2C2.3,0,2.5,0,2.7,0
	c0.1,0,0.1,0,0.1,0c0,0,0.1,0,0.1,0C3,0,3,0.1,3,0.1c0,0,0.1,0.1,0.1,0.2c0.1,0.1,0.1,0.1,0.2,0.2c0,0.1,0.1,0.2,0.2,0.3
	C3.5,0.9,3.6,1,3.6,1.1c0.1,0.1,0.1,0.2,0.2,0.3C3.9,1.5,3.9,1.6,4,1.7C4,1.8,4.1,1.9,4.1,2C4.2,2,4.2,2.1,4.2,2.2
	c0,0.1,0,0.1,0.1,0.1c0,0,0,0.1,0.1,0.1c0,0,0.1,0.1,0.1,0.2c0,0.1,0.1,0.1,0.1,0.2c0,0.1,0.1,0.1,0.1,0.1c0,0,0,0.1,0.1,0.1
	c0,0,0,0.1,0,0.1c0,0.1,0,0.1-0.1,0.2c0,0.1-0.1,0.2-0.2,0.2C4.4,3.7,4.3,3.8,4.2,3.9C4.1,4,4,4,3.9,4.1C3.8,4.2,3.7,4.3,3.6,4.3
	C3.5,4.4,3.4,4.5,3.3,4.6C3.2,4.7,3.2,4.8,3.1,4.8C3.1,4.9,3.1,5,3.1,5c0,0,0,0.1,0,0.1c0,0,0,0.1,0,0.1c0,0,0,0.1,0,0.1
	c0,0,0,0.1,0,0.1c0,0,0,0.1,0.1,0.1c0,0,0,0.1,0.1,0.1c0,0.1,0.1,0.1,0.1,0.1c0,0,0,0,0,0.1C3.6,6.2,3.9,6.6,4.2,7
	C4.4,7.3,4.7,7.7,5,8c0.3,0.3,0.6,0.6,1,0.9c0.4,0.3,0.7,0.5,1.2,0.8c0,0,0,0,0.1,0c0,0,0.1,0,0.1,0.1c0,0,0.1,0.1,0.1,0.1
	c0,0,0.1,0,0.1,0.1c0,0,0.1,0,0.1,0s0.1,0,0.1,0.1c0,0,0.1,0,0.1,0c0,0,0.1,0,0.1,0c0.1,0,0.1,0,0.2-0.1c0.1-0.1,0.2-0.2,0.3-0.3
	c0.1-0.1,0.2-0.3,0.4-0.4C9,9,9.1,8.8,9.3,8.7c0.1-0.1,0.2-0.2,0.3-0.3s0.2-0.1,0.3-0.1c0,0,0.1,0,0.1,0c0,0,0.1,0,0.1,0.1
	c0,0,0.1,0,0.1,0.1c0.1,0,0.1,0.1,0.2,0.1c0.1,0,0.1,0.1,0.1,0.1c0,0,0.1,0,0.1,0.1l0.7,0.4c0.2,0.1,0.4,0.2,0.6,0.3
	c0.2,0.1,0.4,0.2,0.5,0.3c0.2,0.1,0.3,0.2,0.4,0.2C12.9,10,13,10,13,10.1L13,10.1z"/>
</svg>
