<?xml version="1.0" encoding="utf-8"?>
<!-- Generator: Adobe Illustrator 23.0.0, SVG Export Plug-In . SVG Version: 6.00 Build 0)  -->
<svg version="1.1" id="Capa_1" xmlns="http://www.w3.org/2000/svg" xmlns:xlink="http://www.w3.org/1999/xlink" x="0px" y="0px"
	 viewBox="0 0 24 22" style="enable-background:new 0 0 24 22;" xml:space="preserve">
<style type="text/css">
	.st0{fill:#0D7FE8;}
</style>
<g>
	<path class="st0" d="M16.1,12.8c1.8,0.9,3.6,1.8,5.7,2.4V11c0-0.3-0.2-0.6-0.4-0.8l-1.6-1.1c-0.1-0.1-0.4-0.2-0.6-0.2h-2.6V7.3h-3
		v1.6h-2.3c-0.4,0-0.7,0.3-0.7,0.7v0.9C12.7,11.2,14.4,12,16.1,12.8z M16.5,5.8v0.8h-3V5.8c0-0.4,0.3-0.7,0.7-0.7h1.5
		C16.2,5.1,16.5,5.4,16.5,5.8z M18.3,3.5c-0.2,0-0.4,0-0.6-0.1c-0.2,0.3-0.5,0.5-0.9,0.5c-0.1,0-0.2,0-0.4-0.1c0,0,0,0,0,0.1
		c0,0.4-0.3,0.7-0.7,0.7c-0.4,0-0.7-0.3-0.7-0.7s0.3-0.7,0.7-0.7c0,0,0,0,0,0c-0.1-0.1-0.1-0.3-0.1-0.4c0-0.6,0.5-1.2,1.2-1.2
		c0,0,0,0,0.1,0c0.2-0.6,0.8-1.1,1.5-1.1c0.8,0,1.5,0.7,1.5,1.5S19.1,3.5,18.3,3.5z M3.3,18.5c0.1,0.2,0.2,0.5,0,0.7l-0.9,1.3
		C2.1,21,2.4,21.7,3,21.6l19.6-1.5c0.5,0,1-0.4,1.1-0.9c0.1-0.5,0.2-1,0.2-1.5c0-1-0.4-1.2-1.3-1.4c-7.5-1.8-9.6-6.1-22.2-6.8
		C0.2,9.3,0,9.6,0,9.9C0.4,12.7,1.7,16.1,3.3,18.5z M4.2,15.2c0-0.2,0.1-0.3,0.3-0.3s0.3,0.1,0.3,0.3c0,0.5,0.3,0.9,0.8,1.1V14
		c-0.3-0.1-0.4-0.4-0.4-0.7c0-0.4,0.3-0.8,0.8-0.8c0.4,0,0.8,0.3,0.8,0.8c0,0.3-0.2,0.6-0.4,0.7v2.3c0.5-0.1,0.8-0.6,0.8-1.1
		c0-0.2,0.1-0.3,0.3-0.3s0.3,0.1,0.3,0.3C7.8,16.2,7,17,6,17C5,17,4.2,16.2,4.2,15.2z"/>
</g>
</svg>
