<svg  version="1.1" xmlns="http://www.w3.org/2000/svg" xmlns:xlink="http://www.w3.org/1999/xlink" x="0px" y="0px" xml:space="preserve">
<symbol id="icon-mail" viewBox="0 0 20 16">
		<path d="M18.2,15.9c0.4,0,0.8-0.1,1.2-0.4l-5.7-5.7c-0.1,0.1-0.3,0.2-0.4,0.3c-0.4,0.3-0.8,0.6-1,0.7c-0.3,0.2-0.6,0.4-1.1,0.5
			c-0.4,0.2-0.8,0.3-1.2,0.3h0h0c-0.4,0-0.8-0.1-1.2-0.3c-0.4-0.2-0.8-0.4-1.1-0.5c-0.3-0.2-0.6-0.4-1-0.7C6.6,9.9,6.4,9.8,6.3,9.7
			l-5.7,5.7c0.3,0.3,0.7,0.4,1.2,0.4H18.2z"/>
    <path d="M1.1,6.2C0.7,5.9,0.3,5.6,0,5.2v8.6l5-5C4,8.1,2.7,7.3,1.1,6.2z"/>
    <path d="M18.9,6.2c-1.5,1-2.8,1.9-3.9,2.7l5,5V5.2C19.7,5.6,19.3,5.9,18.9,6.2z"/>
    <path d="M18.2,0.1H1.8c-0.6,0-1,0.2-1.3,0.6C0.2,1.1,0,1.6,0,2.2c0,0.5,0.2,1,0.6,1.5C1,4.2,1.5,4.7,1.9,5c0.3,0.2,1,0.7,2.3,1.6
			C4.9,7.1,5.5,7.5,6,7.8c0.4,0.3,0.8,0.6,1.1,0.8c0,0,0.1,0.1,0.2,0.1C7.4,8.8,7.5,8.9,7.6,9C7.8,9.1,8,9.3,8.2,9.4
			c0.2,0.1,0.4,0.2,0.6,0.4C9,9.9,9.2,10,9.4,10c0.2,0.1,0.4,0.1,0.6,0.1h0h0c0.2,0,0.4,0,0.6-0.1c0.2-0.1,0.4-0.2,0.6-0.3
			c0.2-0.1,0.4-0.3,0.6-0.4C12,9.3,12.2,9.1,12.4,9c0.1-0.1,0.2-0.2,0.3-0.2c0.1-0.1,0.1-0.1,0.2-0.1c0.2-0.2,0.6-0.4,1.1-0.8
			c0.9-0.6,2.3-1.6,4.1-2.8c0.5-0.4,1-0.8,1.4-1.4C19.8,3.1,20,2.5,20,1.9c0-0.5-0.2-0.9-0.5-1.3C19.1,0.3,18.7,0.1,18.2,0.1z"/>
	</symbol>

    <symbol id="icon-ship" viewBox="0 0 24 22">
		<path d="m16.1 12.8c1.8 0.9 3.6 1.8 5.7 2.4v-4.2c0-0.3-0.2-0.6-0.4-0.8l-1.6-1.1c-0.1-0.1-0.4-0.2-0.6-0.2h-2.6v-1.6h-3v1.6h-2.3c-0.4 0-0.7 0.3-0.7 0.7v0.9c2.1 0.7 3.8 1.5 5.5 2.3zm0.4-7v0.8h-3v-0.8c0-0.4 0.3-0.7 0.7-0.7h1.5c0.5 0 0.8 0.3 0.8 0.7zm1.8-2.3c-0.2 0-0.4 0-0.6-0.1-0.2 0.3-0.5 0.5-0.9 0.5-0.1 0-0.2 0-0.4-0.1v0.1c0 0.4-0.3 0.7-0.7 0.7s-0.7-0.3-0.7-0.7 0.3-0.7 0.7-0.7c-0.1-0.1-0.1-0.3-0.1-0.4 0-0.6 0.5-1.2 1.2-1.2h0.1c0.2-0.6 0.8-1.1 1.5-1.1 0.8 0 1.5 0.7 1.5 1.5s-0.8 1.5-1.6 1.5zm-15 15c0.1 0.2 0.2 0.5 0 0.7l-0.9 1.3c-0.3 0.5 0 1.2 0.6 1.1l19.6-1.5c0.5 0 1-0.4 1.1-0.9s0.2-1 0.2-1.5c0-1-0.4-1.2-1.3-1.4-7.5-1.8-9.6-6.1-22.2-6.8-0.2-0.2-0.4 0.1-0.4 0.4 0.4 2.8 1.7 6.2 3.3 8.6zm0.9-3.3c0-0.2 0.1-0.3 0.3-0.3s0.3 0.1 0.3 0.3c0 0.5 0.3 0.9 0.8 1.1v-2.3c-0.3-0.1-0.4-0.4-0.4-0.7 0-0.4 0.3-0.8 0.8-0.8 0.4 0 0.8 0.3 0.8 0.8 0 0.3-0.2 0.6-0.4 0.7v2.3c0.5-0.1 0.8-0.6 0.8-1.1 0-0.2 0.1-0.3 0.3-0.3s0.3 0.1 0.3 0.3c0 1-0.8 1.8-1.8 1.8s-1.8-0.8-1.8-1.8z"/>
	</symbol>

</svg>

