<?xml version="1.0" encoding="utf-8"?>
<!-- Generator: Adobe Illustrator 23.0.1, SVG Export Plug-In . SVG Version: 6.00 Build 0)  -->
<svg version="1.1" id="color-ru" xmlns="http://www.w3.org/2000/svg" xmlns:xlink="http://www.w3.org/1999/xlink" x="0px" y="0px"
	 viewBox="0 0 194 38" style="enable-background:new 0 0 194 38;" xml:space="preserve">
<style type="text/css">
	.st0{fill:#034074;}
	.st1{fill-rule:evenodd;clip-rule:evenodd;fill:#034074;}
</style>
<g>
	<path class="st0" d="M50.09,28.04h-3.48l-3.3-8.58l-1.05,1.97v6.61h-3.39V6.52h3.39v9.38l4.44-9.38h3.39l-4.71,9.59L50.09,28.04
		L50.09,28.04z M56.62,19.95h-1.6v8.08h-3.39V6.52h4.99c3.39,0,5.05,1.88,5.05,5.32v2.8C61.67,18.08,60.01,19.95,56.62,19.95
		L56.62,19.95z M58.29,11.62c0-1.54-0.59-2.03-1.66-2.03h-1.6v7.29h1.6c1.08,0,1.66-0.49,1.66-2.03V11.62L58.29,11.62z M70.76,22.57
		c-0.8,3.87-2.13,5.81-6.84,5.5v-3.01c1.72,0.12,2.71-0.18,2.99-1.75l0.03-0.18l-4.68-16.6h3.36l1.85,7.35l1.05,5.04l0.8-5.01
		l1.54-7.38h3.54L70.76,22.57L70.76,22.57z M83.52,28.04V12.88l-1.39,5.29l-2.83,9.87h-3.48V6.52h3.02v13.62l1.23-4.73l2.77-8.88
		h3.73v21.52H83.52L83.52,28.04z M98.89,21.18v1.69c0,3.44-1.73,5.41-5.05,5.41c-3.33,0-5.05-1.97-5.05-5.41v-2.37h3.2v2.58
		c0,1.54,0.68,2.12,1.76,2.12c1.08,0,1.76-0.52,1.76-2.43v-1.69c0-2-0.68-2.74-2.22-2.74h-0.83v-3.07h1.02
		c1.26,0,2.03-0.55,2.03-2.27v-1.2c0-1.94-0.68-2.46-1.76-2.46c-1.08,0-1.79,0.58-1.79,2.12v1.75h-3.11v-1.6
		c0-3.44,1.66-5.35,4.99-5.35c3.33,0,5.05,1.97,5.05,5.41v0.55c0,2.31-0.74,3.75-2.37,4.43C98.21,17.4,98.89,19,98.89,21.18
		L98.89,21.18z M108.41,28.04v-9.22h-3.85v9.22h-3.39V6.52h3.39v9.22h3.85V6.52h3.45v21.52H108.41L108.41,28.04z M126.31,28.04V6.52
		h3.39v21.52H126.31L126.31,28.04z M119.32,28.04h-4.99V6.52h3.39v8.08h1.6c3.39,0,5.05,1.88,5.05,5.32v2.8
		C124.37,26.16,122.71,28.04,119.32,28.04L119.32,28.04z M120.98,19.71c0-1.54-0.59-2.03-1.66-2.03h-1.6v7.29h1.6
		c1.08,0,1.66-0.49,1.66-2.03V19.71L120.98,19.71z M139.87,28.04V12.88l-1.39,5.29l-2.84,9.87h-3.48V6.52h3.02v13.62l1.23-4.73
		l2.77-8.88h3.73v21.52H139.87L139.87,28.04z M137.59,5.13c-2.37,0-3.48-1.32-3.54-3.41h2.1c0.09,1.14,0.55,1.41,1.45,1.41
		c0.93,0,1.45-0.28,1.54-1.41h2.06C141.2,3.81,139.99,5.13,137.59,5.13L137.59,5.13z M162.36,30.62v-2.89h-7.24v2.89h-3.3v-5.9h1.32
		c0.59-0.74,0.77-1.54,0.83-2.8l0.77-15.71h9.49v18.51h1.48v5.9H162.36L162.36,30.62z M160.79,9.28h-2.87l-0.62,12.57
		c-0.09,1.63-0.4,2.34-0.96,2.86h4.44V9.28L160.79,9.28z M172.46,27.98c-3.33,0-5.15-1.97-5.15-5.41V11.37
		c0-3.44,1.82-5.41,5.15-5.41c3.33,0,5.15,1.97,5.15,5.41v11.19C177.61,26.01,175.79,27.98,172.46,27.98L172.46,27.98z
		 M174.22,11.16c0-1.54-0.68-2.12-1.76-2.12c-1.08,0-1.76,0.58-1.76,2.12v11.62c0,1.54,0.68,2.12,1.76,2.12
		c1.08,0,1.76-0.58,1.76-2.12V11.16L174.22,11.16z M190.8,27.73V12.3l-2.34,15.43h-3.2l-2.53-15.22v15.22h-2.96V6.21h4.71l2.5,15.28
		l2.31-15.28H194v21.52H190.8L190.8,27.73z M43.13,37.88v-1.31l0.1-2.25l-1.29,3.56h-0.68l-1.29-3.56l0.1,2.25v1.31h-0.99v-4.78
		h1.29l1.23,3.47l1.22-3.47h1.3v4.78H43.13L43.13,37.88z M51.36,36.84c-0.17,0.36-0.41,0.63-0.72,0.82
		c-0.31,0.19-0.67,0.29-1.07,0.29c-0.4,0-0.75-0.09-1.06-0.29c-0.31-0.19-0.55-0.46-0.72-0.81c-0.17-0.35-0.26-0.76-0.26-1.22v-0.24
		c0-0.47,0.09-0.88,0.25-1.24c0.17-0.36,0.41-0.63,0.72-0.82c0.31-0.19,0.66-0.29,1.06-0.29c0.4,0,0.75,0.1,1.06,0.29
		c0.31,0.19,0.55,0.47,0.72,0.82c0.17,0.36,0.26,0.77,0.26,1.24v0.21C51.61,36.08,51.52,36.49,51.36,36.84L51.36,36.84z
		 M50.61,35.39c0-0.5-0.09-0.88-0.27-1.14c-0.18-0.26-0.44-0.39-0.77-0.39c-0.33,0-0.59,0.13-0.77,0.39
		c-0.18,0.26-0.27,0.63-0.27,1.13v0.23c0,0.49,0.09,0.87,0.27,1.13c0.18,0.27,0.44,0.4,0.78,0.4c0.33,0,0.59-0.13,0.76-0.39
		c0.18-0.26,0.27-0.64,0.27-1.13V35.39L50.61,35.39z M58.2,35.8c-0.32,0.27-0.77,0.4-1.33,0.4H56v1.68h-0.99v-4.78h1.87
		c0.36,0,0.68,0.07,0.95,0.2c0.27,0.13,0.48,0.32,0.63,0.56c0.15,0.24,0.22,0.52,0.22,0.83C58.68,35.16,58.52,35.53,58.2,35.8
		L58.2,35.8z M57.48,34.13c-0.14-0.14-0.33-0.22-0.57-0.22H56v1.5h0.88c0.26,0,0.46-0.06,0.6-0.18c0.14-0.12,0.21-0.3,0.21-0.52
		C57.69,34.46,57.62,34.27,57.48,34.13L57.48,34.13z M64.83,34.73c-0.02-0.31-0.11-0.53-0.26-0.67c-0.15-0.14-0.37-0.21-0.68-0.21
		c-0.33,0-0.58,0.12-0.74,0.35c-0.16,0.23-0.25,0.6-0.25,1.09v0.36c0,0.52,0.08,0.89,0.23,1.13c0.16,0.24,0.4,0.36,0.74,0.36
		c0.31,0,0.53-0.07,0.68-0.21c0.15-0.14,0.24-0.35,0.26-0.65h0.99c-0.04,0.51-0.23,0.92-0.57,1.22c-0.34,0.29-0.79,0.44-1.36,0.44
		c-0.61,0-1.1-0.21-1.45-0.62c-0.35-0.41-0.53-0.98-0.53-1.7v-0.29c0-0.46,0.08-0.86,0.24-1.21c0.16-0.35,0.39-0.62,0.7-0.81
		c0.3-0.19,0.65-0.28,1.05-0.28c0.55,0,1,0.15,1.34,0.44c0.34,0.3,0.53,0.71,0.58,1.24H64.83L64.83,34.73z M73.13,37.89h-1.18
		l-1.23-1.95h-0.57v1.95h-0.99v-4.78h0.99v1.91h0.45l1.17-1.91h1.2l-1.48,2.26L73.13,37.89L73.13,37.89z M79.07,37.88v-3.17
		l-1.92,3.17h-0.99v-4.78h0.99v3.18l1.92-3.18h0.99v4.78H79.07L79.07,37.88z M86.82,37.1v0.79h-3.21v-4.78h3.2v0.8H84.6v1.14h1.89
		v0.76H84.6v1.29H86.82L86.82,37.1z M98.37,37.89H97.3l-0.25-0.28c-0.35,0.23-0.76,0.35-1.22,0.35c-0.47,0-0.85-0.12-1.14-0.37
		c-0.28-0.25-0.43-0.57-0.43-0.98c0-0.22,0.06-0.43,0.19-0.61c0.12-0.19,0.35-0.4,0.68-0.63c-0.14-0.19-0.25-0.37-0.34-0.54
		c-0.08-0.17-0.12-0.34-0.12-0.52c0-0.37,0.12-0.67,0.35-0.91c0.24-0.23,0.55-0.35,0.95-0.35c0.36,0,0.65,0.11,0.88,0.32
		c0.23,0.21,0.34,0.48,0.34,0.79c0,0.38-0.19,0.72-0.58,1.01l-0.37,0.27l0.83,0.96c0.13-0.25,0.19-0.53,0.19-0.84h0.81
		c0,0.62-0.14,1.12-0.43,1.51L98.37,37.89L98.37,37.89z M96.34,34.5c0.05-0.08,0.07-0.17,0.07-0.28c0-0.11-0.04-0.2-0.12-0.29
		c-0.08-0.08-0.19-0.12-0.31-0.12c-0.14,0-0.25,0.04-0.33,0.13c-0.08,0.09-0.12,0.2-0.12,0.35c0,0.16,0.1,0.37,0.29,0.62l0.25-0.17
		C96.2,34.66,96.29,34.57,96.34,34.5L96.34,34.5z M95.58,35.91l-0.07,0.05c-0.19,0.17-0.29,0.36-0.29,0.59
		c0,0.19,0.06,0.34,0.18,0.46c0.12,0.12,0.28,0.18,0.48,0.18c0.23,0,0.44-0.06,0.65-0.19L95.58,35.91L95.58,35.91z M109.13,35.8
		c-0.32,0.27-0.77,0.4-1.33,0.4h-0.86v1.68h-0.99v-4.78h1.87c0.36,0,0.68,0.07,0.95,0.2c0.27,0.13,0.48,0.32,0.63,0.56
		c0.15,0.24,0.22,0.52,0.22,0.83C109.61,35.16,109.45,35.53,109.13,35.8L109.13,35.8z M108.41,34.13c-0.14-0.14-0.33-0.22-0.57-0.22
		h-0.9v1.5h0.88c0.26,0,0.46-0.06,0.6-0.18c0.14-0.12,0.21-0.3,0.21-0.52C108.62,34.46,108.55,34.27,108.41,34.13L108.41,34.13z
		 M116.19,37.1v0.79h-3.21v-4.78h3.2v0.8h-2.22v1.14h1.9v0.76h-1.9v1.29H116.19L116.19,37.1z M122.3,37.88v-1.81
		c-0.3,0.06-0.61,0.1-0.94,0.1c-0.61,0-1.07-0.13-1.38-0.4c-0.31-0.27-0.48-0.65-0.48-1.15v-1.52h0.99v1.5
		c0,0.27,0.07,0.47,0.2,0.59c0.13,0.12,0.36,0.18,0.68,0.18c0.33,0,0.64-0.03,0.94-0.1v-2.17h0.99v4.78H122.3L122.3,37.88z
		 M129.75,37.89v-2.05h-1.92v2.05h-0.99v-4.78h0.99v1.94h1.92v-1.94h0.99v4.78H129.75L129.75,37.89z M138.31,37.89v-4.78h0.99v4.78
		H138.31L138.31,37.89z M137.41,37.46c-0.33,0.28-0.76,0.42-1.31,0.43h-1.8v-4.78h0.99v1.72h0.77c0.56,0,1.01,0.14,1.34,0.41
		c0.33,0.27,0.5,0.64,0.5,1.1C137.9,36.8,137.74,37.18,137.41,37.46L137.41,37.46z M136.7,35.82c-0.14-0.13-0.34-0.19-0.59-0.19
		h-0.81v1.47h0.79c0.25,0,0.45-0.07,0.6-0.21c0.15-0.14,0.23-0.32,0.23-0.55C136.91,36.12,136.84,35.95,136.7,35.82L136.7,35.82z
		 M146.07,37.1v0.79h-3.21v-4.78h3.2v0.8h-2.22v1.14h1.89v0.76h-1.89v1.29H146.07L146.07,37.1z M157.68,37.89h-1.18l-1.23-1.95
		h-0.57v1.95h-0.99v-4.78h0.99v1.91h0.45l1.17-1.91h1.2l-1.48,2.26L157.68,37.89L157.68,37.89z M163.94,35.8
		c-0.32,0.27-0.77,0.4-1.33,0.4h-0.86v1.68h-0.99v-4.78h1.87c0.36,0,0.68,0.07,0.95,0.2c0.27,0.13,0.48,0.32,0.63,0.56
		c0.15,0.24,0.22,0.52,0.22,0.83C164.42,35.16,164.26,35.53,163.94,35.8L163.94,35.8z M163.22,34.13c-0.14-0.14-0.33-0.22-0.57-0.22
		h-0.9v1.5h0.88c0.26,0,0.46-0.06,0.6-0.18c0.14-0.12,0.21-0.3,0.21-0.52C163.43,34.46,163.36,34.27,163.22,34.13L163.22,34.13z
		 M169.85,37.05l-0.13,0.26c-0.25,0.43-0.63,0.65-1.14,0.65l-0.35-0.01l-0.01-0.79c0.05,0.01,0.14,0.01,0.26,0.01
		c0.14,0,0.25-0.03,0.33-0.07c0.08-0.05,0.16-0.14,0.21-0.27l0.12-0.31l-1.68-3.41h1.06l1.06,2.26l0.87-2.26h1.07L169.85,37.05
		L169.85,37.05z M177.61,37.88v-3.17l-1.92,3.17h-0.99v-4.78h0.99v3.18l1.92-3.18h0.99v4.78H177.61L177.61,37.88z M184.76,35.43
		c0.26,0.09,0.47,0.23,0.6,0.42c0.14,0.19,0.21,0.42,0.21,0.7c0,0.43-0.17,0.77-0.51,1.02c-0.34,0.25-0.78,0.38-1.34,0.38
		c-0.35,0-0.66-0.06-0.94-0.18c-0.28-0.12-0.49-0.28-0.63-0.49c-0.14-0.21-0.21-0.45-0.21-0.72h0.99c0,0.17,0.07,0.31,0.22,0.43
		c0.15,0.12,0.34,0.17,0.57,0.17c0.26,0,0.47-0.06,0.62-0.18c0.15-0.12,0.23-0.27,0.23-0.45c0-0.25-0.07-0.43-0.2-0.54
		c-0.14-0.11-0.33-0.16-0.6-0.16h-0.59v-0.76h0.61c0.47-0.01,0.71-0.22,0.71-0.64c0-0.18-0.07-0.32-0.21-0.43
		c-0.14-0.1-0.33-0.16-0.56-0.16c-0.21,0-0.39,0.05-0.53,0.16c-0.14,0.1-0.21,0.24-0.21,0.41h-0.99c0-0.26,0.07-0.49,0.22-0.7
		c0.15-0.21,0.35-0.37,0.62-0.48c0.27-0.12,0.56-0.17,0.88-0.17c0.55,0,0.98,0.12,1.3,0.35c0.31,0.24,0.47,0.57,0.47,1
		c0,0.21-0.06,0.41-0.19,0.59C185.18,35.17,184.99,35.32,184.76,35.43L184.76,35.43z M193.01,37.89v-4.78H194v4.78H193.01
		L193.01,37.89z M192.11,37.46c-0.33,0.28-0.77,0.42-1.31,0.43H189v-4.78H190v1.72h0.77c0.56,0,1.01,0.14,1.34,0.41
		c0.33,0.27,0.5,0.64,0.5,1.1C192.6,36.8,192.44,37.18,192.11,37.46L192.11,37.46z M191.4,35.82c-0.14-0.13-0.34-0.19-0.59-0.19H190
		v1.47h0.79c0.25,0,0.45-0.07,0.6-0.21c0.15-0.14,0.23-0.32,0.23-0.55C191.61,36.12,191.54,35.95,191.4,35.82L191.4,35.82z"/>
	<path class="st1" d="M16.5,5.44c-1.09,0-2.15,0.11-3.18,0.32c0.5,0.65,0.99,1.25,1.49,1.89c0.55-0.07,1.11-0.1,1.69-0.1
		c3.14,0,6.03,1.05,8.35,2.82c0.96-0.24,1.7-0.35,2.5-0.64C24.5,7.07,20.69,5.44,16.5,5.44z"/>
	<path class="st1" d="M16.5,35.14c-7.62,0-13.8-6.18-13.8-13.8c0-4.33,1.99-8.19,5.11-10.72c-0.52-0.48-1.04-0.92-1.61-1.39
		C2.77,12.15,0.6,16.49,0.6,21.34c0,8.78,7.12,15.9,15.9,15.9c5.76,0,10.81-3.06,13.59-7.65c-0.6-0.37-1.15-0.76-1.83-0.99
		C25.84,32.57,21.49,35.14,16.5,35.14z"/>
	<path class="st0" d="M27.07,31.17c-1.15,0-1.77,0.41-2.26,0.74c-0.4,0.27-0.66,0.44-1.28,0.44c-0.62,0-0.88-0.18-1.28-0.44
		c-0.49-0.33-1.11-0.74-2.26-0.74c-1.15,0-1.77,0.41-2.26,0.74c-0.4,0.27-0.66,0.44-1.28,0.44c-0.62,0-0.88-0.18-1.28-0.44
		c-0.49-0.33-1.11-0.74-2.26-0.74c-1.15,0-1.77,0.41-2.26,0.74c-0.4,0.27-0.66,0.44-1.28,0.44s-0.88-0.18-1.28-0.44
		c-0.49-0.33-1.11-0.74-2.26-0.74c-0.49,0-0.89-0.08-0.89,0.41c0,0.49,0.4,0.89,0.89,0.89c0.62,0,0.88,0.18,1.28,0.44
		c0.49,0.33,1.11,0.74,2.26,0.74c1.15,0,1.77-0.41,2.26-0.74c0.4-0.27,0.66-0.44,1.28-0.44c0.62,0,0.88,0.18,1.28,0.44
		c0.49,0.33,1.11,0.74,2.26,0.74c1.15,0,1.77-0.41,2.26-0.74c0.4-0.27,0.66-0.44,1.28-0.44c0.62,0,0.88,0.18,1.28,0.44
		c0.49,0.33,1.11,0.74,2.26,0.74c1.15,0,1.77-0.41,2.26-0.74c0.4-0.27,0.66-0.44,1.28-0.44c0.49,0,0.89-0.4,0.89-0.89
		C27.95,31.08,27.56,31.17,27.07,31.17L27.07,31.17z"/>
	<path class="st0" d="M27.07,28.41c-1.15,0-1.77,0.41-2.26,0.74c-0.4,0.27-0.66,0.44-1.28,0.44c-0.62,0-0.88-0.18-1.28-0.44
		c-0.49-0.33-1.11-0.74-2.26-0.74c-1.15,0-1.77,0.41-2.26,0.74c-0.4,0.27-0.66,0.44-1.28,0.44c-0.62,0-0.88-0.18-1.28-0.44
		c-0.49-0.33-1.11-0.74-2.26-0.74c-1.15,0-1.77,0.41-2.26,0.74c-0.4,0.27-0.66,0.44-1.28,0.44s-0.88-0.18-1.28-0.44
		c-0.49-0.33-1.11-0.74-2.26-0.74c-0.73,0-1.06,0.31-1.19,0.51c-0.04,0.06-0.06,0.14-0.06,0.25c0,0.47,0.73,0.5,1.2,0.52
		c0.02,0,0.03,0,0.05,0c0.62,0,0.88,0.18,1.28,0.44c0.49,0.33,1.11,0.74,2.26,0.74c1.15,0,1.77-0.41,2.26-0.74
		c0.4-0.27,0.66-0.44,1.28-0.44c0.62,0,0.88,0.18,1.28,0.44c0.49,0.33,1.11,0.74,2.26,0.74c1.15,0,1.77-0.41,2.26-0.74
		c0.4-0.27,0.66-0.44,1.28-0.44c0.62,0,0.88,0.18,1.28,0.44c0.49,0.33,1.11,0.74,2.26,0.74c1.15,0,1.77-0.41,2.26-0.74
		c0.4-0.27,0.66-0.44,1.28-0.44c0.49,0,1.73-0.16,1.73-0.65C28.79,28.56,27.56,28.41,27.07,28.41L27.07,28.41z"/>
	<path class="st0" d="M0.4,1.06c0.56,0.7,8.5,8.04,8.5,8.04s0.81,0.41,1.38,2.4c0.49,1.69,1.69,6.1,2.17,7.43
		c-0.31,0.21-0.51,0.41-0.48,0.65c-1.04,0.28-2.7,0.78-3.18,1.24c-0.71,0.69,4.25,0.16,6.22,0.6c0.44,0.1,0.91,0.12,1.39,0.08
		l-0.08,0.03L21,22.44l1.35,1.6l0.11-0.18l-0.81-1.68c0.23-0.75-0.82-2.47-1.41-3.14c-0.14-0.32-0.31-0.58-0.31-0.58
		s1.06-1.51,2.16-2.37c1.06-0.37,6.69-3.6,6.69-3.6s2.04-2.61,3.13-4.05C33,7.03,31.9,7.6,31.9,7.6l-3.98,3.72
		c0,0-5.74,2.06-7.5,2.53c-1.46,0.39-2.99,1.8-3.66,2.68l-2.73-5.89c-0.33-0.89-0.33-0.89-0.33-0.89s-0.52-1.82-2.04-2.77
		C10.12,6.04,0.03,0.05,0.03,0.05S-0.16,0.35,0.4,1.06L0.4,1.06z"/>
</g>
</svg>
